<svg id="Layer_1" data-name="Layer 1" xmlns="http://www.w3.org/2000/svg" viewBox="0 0 923.83 150.5"><defs><style>.cls-1{fill:#d02e1e;}.cls-2{fill:#2e509d;}.cls-3{fill:#48ab33;}.cls-4{fill:#ffe632;}</style></defs><rect class="cls-1" x="65.67" y="100.97" width="154.13" height="36.22" transform="translate(-55.97 122.51) rotate(-53.81)"/><rect class="cls-2" x="21.23" y="49.96" width="63.62" height="29.56" transform="translate(-34.65 -23.57) rotate(-16.64)"/><rect class="cls-2" x="53.22" y="48.74" width="34.49" height="46.9" transform="translate(-36.49 -17.47) rotate(-17.16)"/><rect class="cls-3" x="65.29" y="87.52" width="34.68" height="48.72" transform="translate(-47.66 -12.11) rotate(-17.16)"/><rect class="cls-4" x="75.48" y="122.95" width="34.69" height="43.54" transform="translate(-56.89 -7.64) rotate(-17.16)"/><path d="M297.7,82.24,270,157.16h-9.67L233.12,82.24h9.77l20.75,59.4a35.66,35.66,0,0,1,1.51,6.64h.21a32.6,32.6,0,0,1,1.72-6.74l21.16-59.3Z" transform="translate(-18.33 -41.47)"/><path d="M311.7,90.07a5.45,5.45,0,0,1-3.92-1.56,5.3,5.3,0,0,1-1.62-4A5.48,5.48,0,0,1,311.7,79a5.55,5.55,0,0,1,4,1.59,5.32,5.32,0,0,1,1.65,4,5.26,5.26,0,0,1-1.65,3.91A5.49,5.49,0,0,1,311.7,90.07Zm4.18,67.09h-8.57v-53.5h8.57Z" transform="translate(-18.33 -41.47)"/><path d="M377.64,157.16h-8.57V126.65q0-17-12.44-17A13.51,13.51,0,0,0,346,114.45a17.91,17.91,0,0,0-4.2,12.2v30.51h-8.57v-53.5h8.57v8.88H342q6.06-10.14,17.55-10.14,8.78,0,13.43,5.67t4.65,16.38Z" transform="translate(-18.33 -41.47)"/><path d="M436.78,132.55H399q.19,8.94,4.8,13.79t12.65,4.86a26.28,26.28,0,0,0,16.61-5.95v8q-7.05,5.13-18.65,5.12-11.34,0-17.82-7.29t-6.48-20.5q0-12.5,7.08-20.35a22.68,22.68,0,0,1,17.58-7.87q10.52,0,16.25,6.8t5.75,18.86ZM428,125.29q0-7.42-3.58-11.55t-9.79-4.13a13.88,13.88,0,0,0-10.3,4.34,19.67,19.67,0,0,0-5.22,11.34Z" transform="translate(-18.33 -41.47)"/><path d="M556.58,157.16h-8.73V106.9q0-6,.74-14.58h-.21a47,47,0,0,1-2.25,7.26l-25.6,57.58h-4.28L490.7,100a45.09,45.09,0,0,1-2.25-7.68h-.21q.42,4.5.42,14.68v50.16H480.2V82.24h11.6l23,52.24a66.11,66.11,0,0,1,3.45,9h.32c1.49-4.11,2.7-7.18,3.6-9.2l23.46-52h11Z" transform="translate(-18.33 -41.47)"/><path d="M613.42,157.16h-8.56V148.8h-.21q-5.6,9.62-16.46,9.61-8,0-12.51-4.23A14.64,14.64,0,0,1,571.16,143q0-15,17.66-17.45l16-2.25q0-13.64-11-13.64a26.34,26.34,0,0,0-17.45,6.59v-8.78a33.19,33.19,0,0,1,18.18-5q18.87,0,18.86,20Zm-8.56-27.07L592,131.87q-6,.84-9,2.95t-3,7.5a8.18,8.18,0,0,0,2.8,6.4,10.8,10.8,0,0,0,7.44,2.48,13.75,13.75,0,0,0,10.53-4.47,15.93,15.93,0,0,0,4.16-11.31Z" transform="translate(-18.33 -41.47)"/><path d="M657.47,112.33q-2.25-1.72-6.48-1.72-5.49,0-9.17,5.17t-3.68,14.1v27.28h-8.57v-53.5h8.57v11h.21a18.61,18.61,0,0,1,5.59-8.8,12.71,12.71,0,0,1,8.41-3.16,14,14,0,0,1,5.12.73Z" transform="translate(-18.33 -41.47)"/><path d="M711.18,157.16h-12l-23.62-25.71h-.2v25.71h-8.57V78h8.57v50.21h.2L698,103.66h11.23l-24.81,25.81Z" transform="translate(-18.33 -41.47)"/><path d="M760.81,132.55H723q.21,8.94,4.8,13.79t12.65,4.86a26.28,26.28,0,0,0,16.61-5.95v8q-7.05,5.13-18.65,5.12-11.34,0-17.82-7.29t-6.47-20.5q0-12.5,7.07-20.35a22.69,22.69,0,0,1,17.59-7.87q10.5,0,16.24,6.8t5.75,18.86ZM752,125.29q0-7.42-3.57-11.55t-9.8-4.13A13.84,13.84,0,0,0,728.37,114a19.62,19.62,0,0,0-5.23,11.34Z" transform="translate(-18.33 -41.47)"/><path d="M798.58,156.63a16.43,16.43,0,0,1-8,1.68q-14.05,0-14.05-15.68V111h-9.2v-7.31h9.2V90.6l8.56-2.77v15.83h13.48V111H785.1v30.15q0,5.38,1.83,7.68t6.06,2.3a9,9,0,0,0,5.59-1.78Z" transform="translate(-18.33 -41.47)"/><path d="M814.42,90.07a5.43,5.43,0,0,1-3.92-1.56,5.3,5.3,0,0,1-1.62-4A5.48,5.48,0,0,1,814.42,79a5.54,5.54,0,0,1,4,1.59,5.32,5.32,0,0,1,1.65,4,5.26,5.26,0,0,1-1.65,3.91A5.49,5.49,0,0,1,814.42,90.07Zm4.17,67.09H810v-53.5h8.56Z" transform="translate(-18.33 -41.47)"/><path d="M880.35,157.16h-8.57V126.65q0-17-12.43-17a13.52,13.52,0,0,0-10.64,4.84,17.91,17.91,0,0,0-4.2,12.2v30.51h-8.57v-53.5h8.57v8.88h.21q6.06-10.14,17.55-10.14,8.78,0,13.43,5.67t4.65,16.38Z" transform="translate(-18.33 -41.47)"/><path d="M942.16,152.87q0,29.48-28.22,29.47a37.83,37.83,0,0,1-17.34-3.76V170q9,5,17.24,5,19.75,0,19.75-21v-5.85h-.21q-6.12,10.25-18.39,10.24-10,0-16.07-7.13t-6.08-19.15q0-13.63,6.55-21.68t18-8q10.81,0,16,8.68h.21v-7.42h8.57ZM933.59,133v-7.89a15.32,15.32,0,0,0-4.31-10.92,14.19,14.19,0,0,0-10.74-4.55q-7.93,0-12.43,5.78t-4.5,16.17q0,8.92,4.31,14.29a13.93,13.93,0,0,0,11.42,5.35,14.89,14.89,0,0,0,11.73-5.12Q933.59,141,933.59,133Z" transform="translate(-18.33 -41.47)"/></svg>